<svg width="22" height="22" viewBox="0 0 22 22" fill="none" xmlns="http://www.w3.org/2000/svg">
<path d="M11.4583 2.74999H7.15C5.60986 2.74999 4.83978 2.74999 4.25153 3.04973C3.73408 3.31338 3.31338 3.73408 3.04973 4.25152C2.75 4.83978 2.75 5.60985 2.75 7.14999V14.85C2.75 16.3901 2.75 17.1602 3.04973 17.7485C3.31338 18.2659 3.73408 18.6866 4.25153 18.9503C4.83978 19.25 5.60986 19.25 7.15 19.25H15.5833C16.4358 19.25 16.862 19.25 17.2118 19.1563C18.1608 18.902 18.902 18.1607 19.1563 17.2117C19.25 16.862 19.25 16.4358 19.25 15.5833M17.4167 7.33333V1.83333M14.6667 4.58333H20.1667M9.625 7.79166C9.625 8.80418 8.80419 9.62499 7.79167 9.62499C6.77914 9.62499 5.95833 8.80418 5.95833 7.79166C5.95833 6.77914 6.77914 5.95833 7.79167 5.95833C8.80419 5.95833 9.625 6.77914 9.625 7.79166ZM13.7409 10.925L5.98689 17.974C5.55075 18.3705 5.33268 18.5688 5.31339 18.7405C5.29667 18.8894 5.35375 19.037 5.46625 19.1359C5.59605 19.25 5.89076 19.25 6.48018 19.25H15.0846C16.4039 19.25 17.0635 19.25 17.5816 19.0284C18.232 18.7501 18.7501 18.232 19.0284 17.5816C19.25 17.0635 19.25 16.4039 19.25 15.0846C19.25 14.6408 19.25 14.4188 19.2015 14.2121C19.1405 13.9524 19.0236 13.7091 18.8588 13.4992C18.7277 13.3322 18.5544 13.1935 18.2078 12.9162L15.6437 10.8649C15.2968 10.5874 15.1233 10.4487 14.9323 10.3997C14.764 10.3565 14.5868 10.3621 14.4215 10.4158C14.2339 10.4767 14.0696 10.6261 13.7409 10.925Z" stroke="#4388BB" stroke-width="1.5" stroke-linecap="round" stroke-linejoin="round"/>
</svg>
