<svg width="53" height="17" viewBox="0 0 53 17" fill="none" xmlns="http://www.w3.org/2000/svg">
<g clip-path="url(#clip0_710_5718)">
<path d="M8.47306 12.6444C8.47306 12.0067 8.48 10.3022 8.46426 10.0921C8.47798 7.55576 6.63146 5.76658 5.46491 5.90606C4.6577 5.97602 3.98119 6.30474 3.61795 7.25041C3.28129 8.13172 3.58228 9.30399 4.7016 9.57906C5.89848 9.87448 6.59737 10.1203 7.10316 10.467C7.7229 10.8915 8.22884 11.7026 8.24227 12.6454" fill="#0060AF"/>
<path d="M8.95079 16.5C6.8404 16.5 4.67151 15.9809 2.50551 14.9541L2.45236 14.928L2.42694 14.874C1.45494 12.8248 0.940918 10.5836 0.940918 8.39081C0.940918 6.20135 1.43385 4.05602 2.40658 2.00965L2.4333 1.95527L2.48746 1.92815C4.49112 0.980185 6.64657 0.5 8.8959 0.5C10.9913 0.5 13.2291 1.03456 15.3663 2.04859L15.4212 2.07297L15.4465 2.12836C16.4371 4.21526 16.9595 6.45593 16.9595 8.61237C16.9595 10.7604 16.4579 12.9076 15.4661 14.9932L15.44 15.048L15.3848 15.0734C13.4118 16.0063 11.1867 16.5 8.95079 16.5ZM2.70598 14.6732C4.81016 15.6617 6.90871 16.1609 8.95079 16.1609C11.1161 16.1609 13.2695 15.6882 15.1864 14.7922C16.1386 12.7712 16.6212 10.6912 16.6212 8.61237C16.6212 6.52517 16.1175 4.35403 15.1645 2.32857C13.0904 1.35478 10.9243 0.838394 8.8959 0.838394C6.71821 0.838394 4.63093 1.29968 2.68778 2.20971C1.75506 4.19319 1.28033 6.27159 1.28033 8.39081C1.28033 10.5141 1.77369 12.6861 2.70598 14.6732Z" fill="#0060AF"/>
<path d="M7.9728 12.6454C7.9767 11.828 7.51987 11.1052 6.9228 10.7167C6.39318 10.3735 5.68216 10.1479 4.53511 9.85735C4.18053 9.76677 3.80964 9.56555 3.69482 9.30908C3.39109 9.61473 3.33592 10.3019 3.38935 10.7035C3.45146 11.1682 3.99523 11.9342 4.814 11.9642C5.31401 11.9842 5.94617 11.8567 6.24933 11.7924C6.77231 11.6796 7.59974 12.0067 7.73146 12.6444" fill="#0060AF"/>
<path d="M8.89586 1.95312C7.50761 1.95312 6.30842 2.86748 6.31276 4.44968C6.31709 5.78018 7.38846 6.49245 7.77076 7.0012C8.34848 7.76784 8.66117 8.67528 8.69366 10.0638C8.71894 11.1688 8.71764 12.26 8.72327 12.6467H9.02975C9.02441 12.2421 9.01054 11.0837 9.02642 10.0296C9.04722 8.64066 9.37117 7.76784 9.94918 7.0012C10.3348 6.49245 11.4053 5.78018 11.4076 4.44968C11.4128 2.86748 10.2143 1.95312 8.82725 1.95312" fill="#0060AF"/>
<path d="M9.24827 12.6444C9.24827 12.0067 9.24104 10.3022 9.2565 10.0921C9.24293 7.55576 11.0883 5.76658 12.2559 5.90606C13.0631 5.97602 13.7388 6.30474 14.1031 7.25041C14.4395 8.13172 14.1367 9.30399 13.0187 9.57906C11.8213 9.87448 11.1232 10.1203 10.6162 10.467C9.99713 10.8915 9.52658 11.7026 9.51214 12.6454" fill="#0060AF"/>
<path d="M9.74808 12.6454C9.74374 11.828 10.2004 11.1052 10.7958 10.7167C11.3275 10.3735 12.0394 10.1479 13.1855 9.85735C13.5408 9.76677 13.9112 9.56555 14.024 9.30908C14.3292 9.61473 14.3842 10.3019 14.3308 10.7035C14.2674 11.1682 13.7251 11.9342 12.9077 11.9642C12.4079 11.9842 11.7724 11.8567 11.4705 11.7924C10.9496 11.6796 10.1198 12.0067 9.98754 12.6444" fill="#0060AF"/>
<path d="M10.1764 15.2845L9.99878 13.9899L10.4276 13.925C10.532 13.9107 10.6591 13.9289 10.7099 13.9942C10.7661 14.0624 10.7833 14.1188 10.7941 14.2083C10.8103 14.3189 10.7783 14.4468 10.6535 14.5106V14.5145C10.7928 14.5145 10.877 14.6144 10.9015 14.7832C10.9051 14.8188 10.9156 14.9049 10.9051 14.9768C10.8768 15.1477 10.7746 15.2027 10.6023 15.2268L10.1764 15.2845ZM10.4524 15.0527C10.5033 15.0454 10.5548 15.0427 10.5951 15.017C10.6568 14.9768 10.6512 14.8907 10.6426 14.8268C10.6211 14.6863 10.5844 14.6329 10.4352 14.655L10.3415 14.6694L10.4009 15.0599L10.4524 15.0527ZM10.3626 14.4545C10.4194 14.4453 10.4963 14.4385 10.5284 14.3847C10.5452 14.3488 10.5667 14.3202 10.5525 14.2403C10.535 14.1455 10.5036 14.0868 10.3831 14.1096L10.2709 14.1276L10.3151 14.4594" fill="#0060AF"/>
<path d="M12.034 14.5058C12.0373 14.5299 12.0412 14.5568 12.0426 14.5808C12.0773 14.817 12.034 15.0124 11.7682 15.0662C11.3754 15.1418 11.3001 14.898 11.2309 14.5568L11.1941 14.3721C11.1399 14.0456 11.1167 13.7983 11.4997 13.7222C11.7156 13.6828 11.8583 13.7686 11.9177 13.9832C11.9269 14.0153 11.9385 14.047 11.9428 14.0792L11.7078 14.1276C11.6807 14.047 11.6447 13.9029 11.539 13.915C11.3492 13.9378 11.4119 14.1736 11.4314 14.2722L11.502 14.6266C11.5233 14.7337 11.5654 14.905 11.7296 14.8719C11.8629 14.8452 11.8049 14.6378 11.793 14.5529" fill="#0060AF"/>
<path d="M12.4109 14.8974L12.3296 13.5576L12.6453 13.4614L13.3072 14.6266L13.0587 14.7009L12.9018 14.4048L12.6258 14.4876L12.6615 14.8242L12.4109 14.8974ZM12.6027 14.2712L12.8022 14.2135L12.5373 13.6714" fill="#0060AF"/>
<path d="M4.61306 13.8845C4.71185 13.5686 4.80038 13.3361 5.17734 13.4394C5.37911 13.4956 5.50418 13.5845 5.49826 13.8186C5.49729 13.8707 5.48006 13.9237 5.4688 13.9752L5.2341 13.9105C5.26486 13.7812 5.28436 13.6787 5.12491 13.6296C4.94062 13.5792 4.89571 13.8023 4.87029 13.8986L4.77482 14.2499C4.74449 14.3542 4.70809 14.5265 4.87029 14.571C5.00432 14.607 5.08563 14.4756 5.13416 14.2838L4.96994 14.2404L5.0267 14.0371L5.41276 14.1612L5.22948 14.8381L5.05183 14.7899L5.09184 14.6468H5.08678C5.00504 14.7638 4.90524 14.7761 4.81786 14.7593C4.4318 14.6551 4.47209 14.4031 4.56424 14.0664" fill="#0060AF"/>
<path d="M6.04984 14.4563L5.93358 15.007L5.67188 14.9505L5.95077 13.6646L6.39691 13.7652C6.65803 13.8215 6.73689 13.9376 6.69992 14.1766C6.67883 14.3138 6.6111 14.4616 6.44572 14.4497L6.44399 14.4474C6.5838 14.4963 6.59564 14.5667 6.57123 14.6885C6.56069 14.7402 6.48804 15.0545 6.53816 15.1053L6.53989 15.1438L6.26909 15.0733C6.25782 14.9862 6.2961 14.8295 6.31126 14.7428C6.32657 14.6661 6.35098 14.5579 6.27299 14.5172C6.21189 14.4848 6.18922 14.4864 6.12018 14.4705L6.04984 14.4563ZM6.09447 14.2571L6.27068 14.3046C6.3777 14.32 6.4372 14.2646 6.45829 14.1355C6.47735 14.0171 6.45266 13.9708 6.35661 13.9478L6.1677 13.9096" fill="#0060AF"/>
<path d="M7.72845 13.952L7.98727 13.982L7.87577 14.886C7.82161 15.1726 7.71069 15.2979 7.39497 15.2587C7.07376 15.2182 6.9975 15.0721 7.017 14.7831L7.12922 13.8799L7.39006 13.9097L7.27812 14.7928C7.26628 14.8887 7.24404 15.0308 7.4149 15.048C7.5664 15.0595 7.60078 14.9592 7.61782 14.8346" fill="#0060AF"/>
<path d="M8.27271 15.3083L8.35055 14.0156L8.84782 14.0371C9.08281 14.0487 9.14433 14.2404 9.13697 14.4233C9.13017 14.5345 9.09537 14.6587 8.99831 14.726C8.91873 14.7833 8.81648 14.7968 8.72159 14.7922L8.55954 14.7833L8.52719 15.325L8.27271 15.3083ZM8.56691 14.5861L8.69863 14.5935C8.80565 14.5973 8.87656 14.5551 8.8858 14.3982C8.891 14.2474 8.83396 14.2219 8.6953 14.2158L8.59088 14.2123" fill="#0060AF"/>
<path d="M43.3447 3.20268L41.3683 6.78524C40.6223 6.18029 39.7114 5.73501 38.5492 5.73501C35.7988 5.73501 34.6817 7.78254 34.6817 9.22483C34.6817 10.2954 35.3836 11.875 37.8308 11.875C38.858 11.875 40.3183 11.1613 40.7386 10.8366L38.7839 14.993C37.8522 15.1786 37.5461 15.2937 36.7574 15.3181C32.3773 15.4486 30.6073 12.7614 30.6086 10.0154C30.6115 6.3854 33.8431 1.97071 39.2003 1.97071C39.5286 1.97071 39.9301 2.08408 40.2734 2.20972L40.6203 1.7666" fill="#0060AF"/>
<path d="M51.4995 1.87891L52.0591 14.9H47.8941L47.8916 12.6668H45.0516L44.1169 14.9H39.5999L44.3222 5.60182L43.2574 5.5949L45.2807 1.87891H51.4995ZM47.8646 5.86232L46.2589 9.64971H47.913" fill="#0060AF"/>
<path d="M27.9791 1.87915C30.0417 1.89069 31.2072 3.00886 31.2072 4.6241C31.2072 6.11312 29.978 7.43121 28.6286 8.11276C30.0179 8.62279 30.138 9.87483 30.138 10.7606C30.138 12.9006 27.9879 14.9003 25.1931 14.9003H19.0979L21.4755 5.73159L20.4989 5.72597L22.4953 1.87915C22.4953 1.87915 26.3019 1.86761 27.9791 1.87915ZM25.9555 7.15844C26.3822 7.15844 27.1355 7.05055 27.3238 6.22591C27.5302 5.33075 26.8232 5.30665 26.4841 5.30665L25.2724 5.30135L24.8498 7.15848L25.9555 7.15844ZM24.2423 9.45941L23.6844 11.5994H25.1112C25.6726 11.5994 26.4376 11.3211 26.6251 10.6247C26.8102 9.92632 26.2754 9.45941 25.7161 9.45941" fill="#0060AF"/>
</g>
<defs>
<clipPath id="clip0_710_5718">
<rect width="51.1182" height="16" fill="white" transform="translate(0.940918 0.5)"/>
</clipPath>
</defs>
</svg>
