<svg width="23" height="22" viewBox="0 0 23 22" fill="none" xmlns="http://www.w3.org/2000/svg">
<path d="M18.8337 9.625V6.23333C18.8337 4.69319 18.8337 3.92312 18.5339 3.33486C18.2703 2.81741 17.8496 2.39672 17.3321 2.13307C16.7439 1.83333 15.9738 1.83333 14.4337 1.83333H8.56699C7.02685 1.83333 6.25678 1.83333 5.66852 2.13307C5.15107 2.39672 4.73038 2.81741 4.46672 3.33486C4.16699 3.92312 4.16699 4.69319 4.16699 6.23333V15.7667C4.16699 17.3068 4.16699 18.0769 4.46672 18.6651C4.73038 19.1826 5.15107 19.6033 5.66852 19.8669C6.25678 20.1667 7.02685 20.1667 8.56699 20.1667H11.5003M13.3337 10.0833H7.83366M9.66699 13.75H7.83366M15.167 6.41667H7.83366M17.0003 19.25V13.75M14.2503 16.5H19.7503" stroke="#4388BB" stroke-width="1.5" stroke-linecap="round" stroke-linejoin="round"/>
</svg>
