<svg width="24" height="24" viewBox="0 0 24 24" fill="none" xmlns="http://www.w3.org/2000/svg">
<path d="M8.68001 10.36H5.32002C4.39002 10.36 3.64001 9.60999 3.64001 8.67999V5.32001C3.64001 4.39001 4.39002 3.64001 5.32002 3.64001H8.68001C9.61001 3.64001 10.36 4.39001 10.36 5.32001V8.67999C10.36 9.60999 9.61001 10.36 8.68001 10.36Z" stroke="#4388BB" stroke-width="1.5" stroke-linecap="round" stroke-linejoin="round"/>
<path d="M18.68 10.3599H15.32C14.39 10.3599 13.64 9.60996 13.64 8.67996V5.31997C13.64 4.38997 14.39 3.63998 15.32 3.63998H18.68C19.61 3.63998 20.36 4.38997 20.36 5.31997V8.67996C20.36 9.60996 19.61 10.3599 18.68 10.3599Z" stroke="#4388BB" stroke-width="1.5" stroke-linecap="round" stroke-linejoin="round"/>
<path d="M8.68001 20.3599H5.32002C4.39002 20.3599 3.64001 19.61 3.64001 18.68V15.32C3.64001 14.39 4.39002 13.64 5.32002 13.64H8.68001C9.61001 13.64 10.36 14.39 10.36 15.32V18.68C10.36 19.61 9.61001 20.3599 8.68001 20.3599Z" stroke="#4388BB" stroke-width="1.5" stroke-linecap="round" stroke-linejoin="round"/>
<path d="M18.68 20.3599H15.32C14.39 20.3599 13.64 19.61 13.64 18.68V15.32C13.64 14.39 14.39 13.64 15.32 13.64H18.68C19.61 13.64 20.36 14.39 20.36 15.32V18.68C20.36 19.61 19.61 20.3599 18.68 20.3599Z" stroke="#4388BB" stroke-width="1.5" stroke-linecap="round" stroke-linejoin="round"/>
</svg>
