<svg width="35" height="34" viewBox="0 0 35 34" fill="none" xmlns="http://www.w3.org/2000/svg">
<path d="M12.7967 14.6767H8.0367C6.7192 14.6767 5.65668 13.6142 5.65668 12.2967V7.53668C5.65668 6.21918 6.7192 5.15669 8.0367 5.15669H12.7967C14.1142 5.15669 15.1767 6.21918 15.1767 7.53668V12.2967C15.1767 13.6142 14.1142 14.6767 12.7967 14.6767Z" stroke="#1E1E1E" stroke-width="1.5" stroke-linecap="round" stroke-linejoin="round"/>
<path d="M26.9633 14.6766H22.2033C20.8858 14.6766 19.8233 13.6141 19.8233 12.2966V7.53664C19.8233 6.21914 20.8858 5.15665 22.2033 5.15665H26.9633C28.2808 5.15665 29.3433 6.21914 29.3433 7.53664V12.2966C29.3433 13.6141 28.2808 14.6766 26.9633 14.6766Z" stroke="#1E1E1E" stroke-width="1.5" stroke-linecap="round" stroke-linejoin="round"/>
<path d="M12.7966 28.8433H8.03664C6.71914 28.8433 5.65663 27.7808 5.65663 26.4633V21.7033C5.65663 20.3858 6.71914 19.3233 8.03664 19.3233H12.7966C14.1141 19.3233 15.1766 20.3858 15.1766 21.7033V26.4633C15.1766 27.7808 14.1141 28.8433 12.7966 28.8433Z" stroke="#1E1E1E" stroke-width="1.5" stroke-linecap="round" stroke-linejoin="round"/>
<path d="M26.9633 28.8433H22.2033C20.8858 28.8433 19.8233 27.7808 19.8233 26.4633V21.7033C19.8233 20.3858 20.8858 19.3233 22.2033 19.3233H26.9633C28.2808 19.3233 29.3433 20.3858 29.3433 21.7033V26.4633C29.3433 27.7808 28.2808 28.8433 26.9633 28.8433Z" stroke="#1E1E1E" stroke-width="1.5" stroke-linecap="round" stroke-linejoin="round"/>
</svg>
