<svg width="20" height="20" viewBox="0 0 20 20" fill="none" xmlns="http://www.w3.org/2000/svg">
<path d="M10 11.8083C8.22502 11.8083 6.77502 10.3667 6.77502 8.58334C6.77502 6.8 8.22502 5.36667 10 5.36667C11.775 5.36667 13.225 6.80834 13.225 8.59167C13.225 10.375 11.775 11.8083 10 11.8083ZM10 6.61667C8.91669 6.61667 8.02502 7.5 8.02502 8.59167C8.02502 9.68334 8.90836 10.5667 10 10.5667C11.0917 10.5667 11.975 9.68334 11.975 8.59167C11.975 7.5 11.0834 6.61667 10 6.61667Z" fill="#8A8A8A"/>
<path d="M10 18.9667C8.76669 18.9667 7.52502 18.5 6.55836 17.575C4.10002 15.2083 1.38336 11.4333 2.40836 6.94167C3.33336 2.86667 6.89169 1.04167 10 1.04167C10 1.04167 10 1.04167 10.0084 1.04167C13.1167 1.04167 16.675 2.86667 17.6 6.95001C18.6167 11.4417 15.9 15.2083 13.4417 17.575C12.475 18.5 11.2334 18.9667 10 18.9667ZM10 2.29167C7.57502 2.29167 4.45836 3.58334 3.63336 7.21667C2.73336 11.1417 5.20002 14.525 7.43336 16.6667C8.87502 18.0583 11.1334 18.0583 12.575 16.6667C14.8 14.525 17.2667 11.1417 16.3834 7.21667C15.55 3.58334 12.425 2.29167 10 2.29167Z" fill="#8A8A8A"/>
</svg>
