<svg width="23" height="22" viewBox="0 0 23 22" fill="none" xmlns="http://www.w3.org/2000/svg">
<path d="M7.34323 9.16667V7.33333C7.34323 4.80203 9.39526 2.75 11.9266 2.75C13.806 2.75 15.4213 3.88125 16.1285 5.5M11.9266 13.2917V15.125M8.99323 19.25H14.8599C16.4 19.25 17.1701 19.25 17.7584 18.9503C18.2758 18.6866 18.6965 18.2659 18.9602 17.7485C19.2599 17.1602 19.2599 16.3901 19.2599 14.85V13.5667C19.2599 12.0265 19.2599 11.2564 18.9602 10.6682C18.6965 10.1507 18.2758 9.73005 17.7584 9.4664C17.1701 9.16667 16.4 9.16667 14.8599 9.16667H8.99323C7.45309 9.16667 6.68301 9.16667 6.09476 9.4664C5.57731 9.73005 5.15662 10.1507 4.89296 10.6682C4.59323 11.2564 4.59323 12.0265 4.59323 13.5667V14.85C4.59323 16.3901 4.59323 17.1602 4.89296 17.7485C5.15662 18.2659 5.57731 18.6866 6.09476 18.9503C6.68301 19.25 7.45309 19.25 8.99323 19.25Z" stroke="#8A8A8A" stroke-width="1.5" stroke-linecap="round" stroke-linejoin="round"/>
</svg>
