<svg width="23" height="22" viewBox="0 0 23 22" fill="none" xmlns="http://www.w3.org/2000/svg">
<path d="M20.2083 16.5L14.119 11M8.88093 11L2.79168 16.5M2.33331 6.41667L9.81782 11.6558C10.4239 12.0801 10.7269 12.2922 11.0566 12.3744C11.3477 12.4469 11.6522 12.4469 11.9434 12.3744C12.273 12.2922 12.5761 12.0801 13.1821 11.6558L20.6666 6.41667M6.73331 18.3333H16.2666C17.8068 18.3333 18.5769 18.3333 19.1651 18.0336C19.6826 17.77 20.1033 17.3493 20.3669 16.8318C20.6666 16.2436 20.6666 15.4735 20.6666 13.9333V8.06667C20.6666 6.52653 20.6666 5.75646 20.3669 5.1682C20.1033 4.65075 19.6826 4.23006 19.1651 3.9664C18.5769 3.66667 17.8068 3.66667 16.2666 3.66667H6.73331C5.19317 3.66667 4.4231 3.66667 3.83484 3.9664C3.31739 4.23006 2.8967 4.65075 2.63305 5.1682C2.33331 5.75646 2.33331 6.52653 2.33331 8.06667V13.9333C2.33331 15.4735 2.33331 16.2436 2.63305 16.8318C2.8967 17.3493 3.31739 17.77 3.83484 18.0336C4.4231 18.3333 5.19317 18.3333 6.73331 18.3333Z" stroke="#8A8A8A" stroke-width="1.5" stroke-linecap="round" stroke-linejoin="round"/>
</svg>
