<svg width="183" height="183" viewBox="0 0 183 183" fill="none" xmlns="http://www.w3.org/2000/svg">
<path d="M115.592 44.2279H41.9419C35.9021 44.2279 31.0059 49.1241 31.0059 55.1639V133.043C31.0059 139.083 35.9021 143.979 41.9419 143.979H115.592C121.632 143.979 126.528 139.083 126.528 133.043V55.1639C126.528 49.1241 121.632 44.2279 115.592 44.2279Z" stroke="#D4D4D4" stroke-width="3.51923" stroke-linecap="round" stroke-linejoin="round"/>
<path d="M88.9733 37.4393C88.9733 31.8033 84.3983 27.2406 78.764 27.2406C73.1297 27.2406 68.5547 31.805 68.5547 37.4393H57.082V51.2857H100.458V37.4393H88.9733Z" fill="#D4D4D4" stroke="#D4D4D4" stroke-width="3.51923" stroke-linecap="round" stroke-linejoin="round"/>
<path d="M47.4131 75.0265L51.6414 79.2549L61.673 69.2233" stroke="#D4D4D4" stroke-width="3.51923" stroke-linecap="round" stroke-linejoin="round"/>
<path d="M71.917 74.7116H107.843" stroke="#D4D4D4" stroke-width="3.51923" stroke-linecap="round" stroke-linejoin="round"/>
<path d="M47.4131 94.7184L51.6414 98.9467L61.673 88.9152" stroke="#D4D4D4" stroke-width="3.51923" stroke-linecap="round" stroke-linejoin="round"/>
<path d="M71.917 96.2581H107.843" stroke="#D4D4D4" stroke-width="3.51923" stroke-linecap="round" stroke-linejoin="round"/>
<path d="M71.917 117.806H98.3411" stroke="#D4D4D4" stroke-width="3.51923" stroke-linecap="round" stroke-linejoin="round"/>
<path d="M49.2178 112.482L59.867 123.131" stroke="#D4D4D4" stroke-width="3.51923" stroke-linecap="round" stroke-linejoin="round"/>
<path d="M59.867 112.482L49.2178 123.131" stroke="#D4D4D4" stroke-width="3.51923" stroke-linecap="round" stroke-linejoin="round"/>
<path d="M119.191 113.643L102.211 143.053C98.9505 148.702 103.026 155.761 109.549 155.761H143.507C150.029 155.761 154.106 148.702 150.845 143.053L133.865 113.643C130.604 107.995 122.452 107.995 119.191 113.643Z" fill="#D4D4D4" stroke="#D4D4D4" stroke-width="3.51923" stroke-linecap="round" stroke-linejoin="round"/>
<path d="M126.528 124.597V134.94" stroke="white" stroke-width="3.51923" stroke-linecap="round" stroke-linejoin="round"/>
<path d="M126.529 146.21C128.395 146.21 129.909 144.697 129.909 142.83C129.909 140.963 128.395 139.45 126.529 139.45C124.662 139.45 123.148 140.963 123.148 142.83C123.148 144.697 124.662 146.21 126.529 146.21Z" fill="white"/>
</svg>
