<svg width="183" height="183" viewBox="0 0 183 183" fill="none" xmlns="http://www.w3.org/2000/svg">
<path d="M60.8504 110.467C71.5723 110.467 80.2642 101.775 80.2642 91.0531C80.2642 80.3311 71.5723 71.6392 60.8504 71.6392C50.1284 71.6392 41.4365 80.3311 41.4365 91.0531C41.4365 101.775 50.1284 110.467 60.8504 110.467Z" stroke="#D4D4D4" stroke-width="3.51923" stroke-linecap="round" stroke-linejoin="round"/>
<path d="M40.0557 111.843L47.124 104.775" stroke="#D4D4D4" stroke-width="3.51923" stroke-linecap="round" stroke-linejoin="round"/>
<path d="M40.0545 122.179C42.9069 119.326 42.9069 114.702 40.0545 111.849C37.202 108.997 32.5773 108.997 29.7248 111.849L16.6765 124.897C13.8241 127.75 13.8241 132.375 16.6765 135.227C19.529 138.08 24.1537 138.08 27.0062 135.227L40.0545 122.179Z" stroke="#D4D4D4" stroke-width="3.51923" stroke-linecap="round" stroke-linejoin="round"/>
<path d="M54.3623 109.346V133.224C54.3623 139.048 59.0957 143.782 64.92 143.782H128.266C134.09 143.782 138.824 139.048 138.824 133.224V41.724C138.824 35.8997 134.09 31.1663 128.266 31.1663H64.92C59.0957 31.1663 54.3623 35.8997 54.3623 41.724V72.7636" stroke="#D4D4D4" stroke-width="3.51923" stroke-linecap="round" stroke-linejoin="round"/>
<path d="M138.755 40.5099L144.738 41.6536C150.456 42.7446 154.222 48.2698 153.131 54.0061L138.825 129.177" stroke="#D4D4D4" stroke-width="3.51923" stroke-linecap="round" stroke-linejoin="round"/>
<path d="M135.413 155.351C149.777 155.351 161.422 143.707 161.422 129.342C161.422 114.978 149.777 103.333 135.413 103.333C121.049 103.333 109.404 114.978 109.404 129.342C109.404 143.707 121.049 155.351 135.413 155.351Z" fill="#D4D4D4"/>
<path d="M142.5 121.5L127.5 136.5M127.5 121.5L142.5 136.5" stroke="white" stroke-width="3" stroke-linecap="round" stroke-linejoin="round"/>
<path d="M66.7627 50.149H124.388" stroke="#D4D4D4" stroke-width="3.51923" stroke-linecap="round" stroke-linejoin="round"/>
<path d="M93.5039 65.7903H124.387" stroke="#D4D4D4" stroke-width="3.51923" stroke-linecap="round" stroke-linejoin="round"/>
<path d="M65.4531 129.656C68.5025 125.309 73.1409 118.452 75.2753 119.073C77.9024 119.81 76.1903 129.006 77.6455 129.2C79.1465 129.393 82.5496 120.877 85.2946 120.857C87.8055 120.857 86.2993 129.355 89.0443 129.645C90.6403 129.819 93.2251 127.706 97.6594 114.495" stroke="#D4D4D4" stroke-width="3.51923" stroke-linecap="round" stroke-linejoin="round"/>
</svg>
