<svg width="45" height="15" viewBox="0 0 45 15" fill="none" xmlns="http://www.w3.org/2000/svg">
<path fill-rule="evenodd" clip-rule="evenodd" d="M12.4557 12.3066C11.0798 13.6213 9.24737 14.3435 7.34928 14.3191C5.44176 14.348 3.59864 13.6257 2.21389 12.3066C1.56234 11.6714 1.04433 10.9112 0.690574 10.071C0.336823 9.23077 0.154541 8.32769 0.154541 7.41532C0.154541 6.50295 0.336823 5.59988 0.690574 4.75967C1.04433 3.91945 1.56234 3.15922 2.21389 2.52407C3.59688 1.19709 5.44348 0.470057 7.35508 0.499908C9.25318 0.475494 11.0856 1.19769 12.4615 2.51241C13.1137 3.14714 13.6324 3.90723 13.9866 4.7475C14.3408 5.58777 14.5233 6.49106 14.5233 7.40366C14.5233 8.31626 14.3408 9.21955 13.9866 10.0598C13.6324 10.9001 13.1137 11.6602 12.4615 12.2949M7.35508 2.75157C6.74921 2.74569 6.14844 2.86326 5.589 3.09719C5.02957 3.33112 4.52309 3.67657 4.10011 4.11268C3.67713 4.54879 3.34643 5.06653 3.12796 5.63466C2.90949 6.20279 2.80778 6.80952 2.82897 7.41824C2.82897 8.01422 2.94574 8.60437 3.17262 9.15499C3.39949 9.7056 3.73203 10.2059 4.15124 10.6273C4.57045 11.0488 5.06813 11.383 5.61585 11.6111C6.16358 11.8392 6.75063 11.9566 7.34348 11.9566C7.93633 11.9566 8.52338 11.8392 9.07111 11.6111C9.61883 11.383 10.1165 11.0488 10.5357 10.6273C10.9549 10.2059 11.2875 9.7056 11.5143 9.15499C11.7412 8.60437 11.858 8.01422 11.858 7.41824C11.8791 6.81149 11.7781 6.20671 11.561 5.64015C11.344 5.0736 11.0154 4.55694 10.5949 4.12115C10.1744 3.68537 9.67069 3.33943 9.11397 3.10409C8.55726 2.86875 7.95901 2.74885 7.35508 2.75157ZM29.4054 2.12741L23.887 14.4999L23.5737 14.4416C21.9953 14.1557 21.6762 13.7591 20.9392 12.1491L16.8019 3.08991H15.2468V0.890741H21.1249V3.08991H19.7207L23.0456 10.5857L26.2719 3.08991H24.5311V0.890741H29.4054V2.12741ZM42.7516 12.3066C41.358 13.6004 39.5306 14.3189 37.6336 14.3189C35.7366 14.3189 33.9092 13.6004 32.5156 12.3066C31.8641 11.6714 31.3461 10.9112 30.9923 10.071C30.6386 9.23077 30.4563 8.32769 30.4563 7.41532C30.4563 6.50295 30.6386 5.59988 30.9923 4.75967C31.3461 3.91945 31.8641 3.15922 32.5156 2.52407C33.9092 1.23023 35.7366 0.51173 37.6336 0.51173C39.5306 0.51173 41.358 1.23023 42.7516 2.52407C43.4053 3.15796 43.9253 3.91779 44.2804 4.75817C44.6355 5.59855 44.8186 6.50225 44.8186 7.41532C44.8186 8.32839 44.6355 9.2321 44.2804 10.0725C43.9253 10.9129 43.4053 11.6727 42.7516 12.3066ZM37.6742 2.75157C37.0681 2.74572 36.4671 2.86327 35.9073 3.09713C35.3476 3.331 34.8407 3.67635 34.4173 4.11237C33.9939 4.5484 33.6626 5.06608 33.4435 5.63423C33.2244 6.20237 33.1219 6.80923 33.1423 7.41824C33.1423 8.01422 33.2591 8.60437 33.486 9.15499C33.7128 9.7056 34.0454 10.2059 34.4646 10.6273C34.8838 11.0488 35.3815 11.383 35.9292 11.6111C36.4769 11.8392 37.064 11.9566 37.6568 11.9566C38.2497 11.9566 38.8367 11.8392 39.3844 11.6111C39.9322 11.383 40.4298 11.0488 40.8491 10.6273C41.2683 10.2059 41.6008 9.7056 41.8277 9.15499C42.0546 8.60437 42.1713 8.01422 42.1713 7.41824C42.1932 6.81178 42.093 6.20712 41.8766 5.64059C41.6602 5.07406 41.3321 4.55734 40.9121 4.12146C40.492 3.68559 39.9887 3.33956 39.4323 3.10415C38.8759 2.86874 38.2779 2.74882 37.6742 2.75157Z" fill="#4B2489"/>
</svg>
