<svg width="24" height="24" viewBox="0 0 24 24" fill="none" xmlns="http://www.w3.org/2000/svg">
<path d="M19.19 17.63C17.45 16.07 14.87 15.09 12 15.09C9.13 15.09 6.55 16.08 4.81 17.63" stroke="#8A8A8A" stroke-width="1.5" stroke-linecap="round" stroke-linejoin="round"/>
<path d="M12 12C13.4194 12 14.57 10.8494 14.57 9.42999C14.57 8.01062 13.4194 6.85999 12 6.85999C10.5806 6.85999 9.42999 8.01062 9.42999 9.42999C9.42999 10.8494 10.5806 12 12 12Z" stroke="#8A8A8A" stroke-width="1.5" stroke-linecap="round" stroke-linejoin="round"/>
<path d="M12 21.25C17.1086 21.25 21.25 17.1086 21.25 12C21.25 6.89137 17.1086 2.75 12 2.75C6.89137 2.75 2.75 6.89137 2.75 12C2.75 17.1086 6.89137 21.25 12 21.25Z" stroke="#8A8A8A" stroke-width="1.5" stroke-linecap="round" stroke-linejoin="round"/>
</svg>
