<svg width="16" height="17" viewBox="0 0 16 17" fill="none" xmlns="http://www.w3.org/2000/svg">
<path d="M8.66699 3.83332C8.66699 3.46513 8.36852 3.16666 8.00033 3.16666C7.63214 3.16666 7.33366 3.46513 7.33366 3.83332V7.83332H3.33366C2.96547 7.83332 2.66699 8.1318 2.66699 8.49999C2.66699 8.86818 2.96547 9.16666 3.33366 9.16666H7.33366V13.1667C7.33366 13.5348 7.63214 13.8333 8.00033 13.8333C8.36852 13.8333 8.66699 13.5348 8.66699 13.1667V9.16666H12.667C13.0352 9.16666 13.3337 8.86818 13.3337 8.49999C13.3337 8.1318 13.0352 7.83332 12.667 7.83332H8.66699V3.83332Z" fill="#4388BB"/>
</svg>
