<svg width="23" height="22" viewBox="0 0 23 22" fill="none" xmlns="http://www.w3.org/2000/svg">
<path d="M15.6247 2.75L12.4163 5.95833M12.4163 5.95833L15.6247 9.16667M12.4163 5.95833H19.7497M9.87443 12.7078C8.77298 11.6064 7.90326 10.3609 7.26526 9.03213C7.21039 8.91783 7.18295 8.86068 7.16187 8.78836C7.08695 8.53137 7.14076 8.2158 7.29661 7.99816C7.34046 7.93691 7.39285 7.88452 7.49764 7.77973C7.81811 7.45926 7.97835 7.29902 8.08311 7.13789C8.47819 6.53024 8.47819 5.74688 8.08311 5.13923C7.97835 4.9781 7.81811 4.81786 7.49764 4.49739L7.31901 4.31876C6.83185 3.8316 6.58828 3.58803 6.32668 3.45571C5.80641 3.19256 5.192 3.19256 4.67174 3.45571C4.41014 3.58803 4.16656 3.8316 3.67941 4.31876L3.53491 4.46326C3.04942 4.94875 2.80668 5.19149 2.62128 5.52152C2.41556 5.88773 2.26765 6.45652 2.2689 6.87655C2.27002 7.25509 2.34345 7.51379 2.49031 8.0312C3.27953 10.8118 4.76863 13.4356 6.95762 15.6246C9.1466 17.8136 11.7704 19.3027 14.551 20.0919C15.0684 20.2388 15.3272 20.3122 15.7057 20.3133C16.1257 20.3146 16.6945 20.1667 17.0607 19.961C17.3908 19.7756 17.6335 19.5328 18.119 19.0473L18.2635 18.9028C18.7506 18.4157 18.9942 18.1721 19.1265 17.9105C19.3897 17.3902 19.3897 16.7758 19.1265 16.2556C18.9942 15.994 18.7506 15.7504 18.2635 15.2632L18.0849 15.0846C17.7644 14.7641 17.6041 14.6039 17.443 14.4991C16.8354 14.1041 16.052 14.1041 15.4443 14.4991C15.2832 14.6039 15.123 14.7641 14.8025 15.0846C14.6977 15.1894 14.6453 15.2418 14.5841 15.2856C14.3664 15.4415 14.0509 15.4953 13.7939 15.4204C13.7216 15.3993 13.6644 15.3719 13.5501 15.317C12.2213 14.679 10.9759 13.8093 9.87443 12.7078Z" stroke="#8A8A8A" stroke-width="1.5" stroke-linecap="round" stroke-linejoin="round"/>
</svg>
