<svg width="24" height="25" viewBox="0 0 24 25" fill="none" xmlns="http://www.w3.org/2000/svg">
<path fill-rule="evenodd" clip-rule="evenodd" d="M2.00023 15.4998L2.00024 15.5054V18.3386C2.00023 18.8657 2.00021 19.3205 2.03082 19.695C2.06312 20.0904 2.13443 20.4836 2.32723 20.862C2.61485 21.4265 3.07379 21.8854 3.63827 22.173C4.01665 22.3658 4.40987 22.4371 4.80522 22.4694C5.17978 22.5 5.63455 22.5 6.16168 22.5L17.8388 22.5C18.366 22.5 18.8207 22.5 19.1953 22.4694C19.5906 22.4371 19.9838 22.3658 20.3622 22.173C20.9267 21.8854 21.3856 21.4265 21.6733 20.862C21.8661 20.4836 21.9374 20.0904 21.9697 19.695C22.0003 19.3205 22.0003 18.8657 22.0002 18.3386V11.6614C22.0003 11.1343 22.0003 10.6795 21.9697 10.305C21.9374 9.90963 21.8661 9.51641 21.6733 9.13803C21.3856 8.57355 20.9267 8.1146 20.3622 7.82698C19.9838 7.63419 19.5906 7.56287 19.1953 7.53057C18.8207 7.49997 18.3659 7.49998 17.8388 7.5H17.0002L17.0002 4.95984C17.0003 4.57898 17.0003 4.22782 16.9742 3.94186C16.9471 3.64551 16.8828 3.27165 16.6498 2.93181C16.3437 2.48523 15.8695 2.18186 15.3357 2.09103C14.9295 2.02191 14.5631 2.12016 14.2827 2.21978C14.0122 2.31591 13.6933 2.46309 13.3475 2.62273L4.32323 6.78766C3.76642 7.04373 3.27694 7.26884 2.90339 7.63392C2.57632 7.95357 2.32665 8.34377 2.17349 8.77469C1.99855 9.26685 1.99928 9.80561 2.00011 10.4185L2.00023 15.4998ZM14.9523 4.10438C14.7785 4.16612 14.544 4.27326 14.1488 4.45566L7.55271 7.5L15.0002 7.5V5.00043C15.0002 4.56518 14.9992 4.30737 14.9825 4.1237L14.9796 4.09491L14.9523 4.10438ZM16.5002 13.5C15.6718 13.5 15.0002 14.1716 15.0002 15C15.0002 15.8284 15.6718 16.5 16.5002 16.5C17.3287 16.5 18.0002 15.8284 18.0002 15C18.0002 14.1716 17.3287 13.5 16.5002 13.5Z" fill="white"/>
</svg>
