<svg width="23" height="22" viewBox="0 0 23 22" fill="none" xmlns="http://www.w3.org/2000/svg">
<path d="M11.9583 2.74998H7.65C6.10986 2.74998 5.33978 2.74998 4.75153 3.04971C4.23408 3.31336 3.81338 3.73406 3.54973 4.25151C3.25 4.83976 3.25 5.60983 3.25 7.14998V14.85C3.25 16.3901 3.25 17.1602 3.54973 17.7485C3.81338 18.2659 4.23408 18.6866 4.75153 18.9502C5.33978 19.25 6.10986 19.25 7.65 19.25H16.0833C16.9358 19.25 17.362 19.25 17.7118 19.1563C18.6608 18.902 19.402 18.1607 19.6563 17.2117C19.75 16.862 19.75 16.4358 19.75 15.5833M17.9167 7.33331V1.83331M15.1667 4.58331H20.6667M10.125 7.79165C10.125 8.80417 9.30419 9.62498 8.29167 9.62498C7.27914 9.62498 6.45833 8.80417 6.45833 7.79165C6.45833 6.77912 7.27914 5.95831 8.29167 5.95831C9.30419 5.95831 10.125 6.77912 10.125 7.79165ZM14.2409 10.9249L6.48689 17.974C6.05075 18.3705 5.83268 18.5688 5.81339 18.7405C5.79667 18.8893 5.85375 19.037 5.96625 19.1359C6.09605 19.25 6.39076 19.25 6.98018 19.25H15.5846C16.9039 19.25 17.5635 19.25 18.0816 19.0284C18.732 18.7501 19.2501 18.232 19.5284 17.5816C19.75 17.0635 19.75 16.4039 19.75 15.0846C19.75 14.6407 19.75 14.4188 19.7015 14.2121C19.6405 13.9524 19.5236 13.7091 19.3588 13.4992C19.2277 13.3322 19.0544 13.1935 18.7078 12.9162L16.1437 10.8649C15.7968 10.5874 15.6233 10.4486 15.4323 10.3997C15.264 10.3565 15.0868 10.3621 14.9215 10.4158C14.7339 10.4767 14.5696 10.6261 14.2409 10.9249Z" stroke="#4388BB" stroke-width="1.5" stroke-linecap="round" stroke-linejoin="round"/>
</svg>
