<svg width="22" height="22" viewBox="0 0 22 22" fill="none" xmlns="http://www.w3.org/2000/svg">
<path d="M18.3334 9.62516V6.2335C18.3334 4.69335 18.3334 3.92328 18.0337 3.33502C17.77 2.81758 17.3493 2.39688 16.8319 2.13323C16.2436 1.8335 15.4736 1.8335 13.9334 1.8335H8.06675C6.5266 1.8335 5.75653 1.8335 5.16827 2.13323C4.65083 2.39688 4.23013 2.81758 3.96648 3.33502C3.66675 3.92328 3.66675 4.69335 3.66675 6.2335V15.7668C3.66675 17.307 3.66675 18.077 3.96648 18.6653C4.23013 19.1827 4.65083 19.6034 5.16827 19.8671C5.75653 20.1668 6.5266 20.1668 8.06675 20.1668H11.0001M12.8334 10.0835H7.33341M9.16675 13.7502H7.33341M14.6667 6.41683H7.33341M16.5001 19.2502V13.7502M13.7501 16.5002H19.2501" stroke="#4388BB" stroke-width="1.5" stroke-linecap="round" stroke-linejoin="round"/>
</svg>
