<svg width="20" height="20" viewBox="0 0 20 20" fill="none" xmlns="http://www.w3.org/2000/svg">
<path fill-rule="evenodd" clip-rule="evenodd" d="M11.8677 1.66666H8.13225C7.46144 1.66665 6.9078 1.66664 6.45681 1.70349C5.98839 1.74176 5.55781 1.82389 5.15336 2.02997C4.52615 2.34955 4.01622 2.85948 3.69664 3.48669C3.49057 3.89114 3.40843 4.32172 3.37016 4.79014C3.33331 5.24113 3.33332 5.79476 3.33333 6.46556V17.5C3.33333 17.797 3.49146 18.0716 3.74839 18.2207C4.00532 18.3699 4.32219 18.3709 4.58011 18.2235L10 15.1265L15.4199 18.2235C15.6778 18.3709 15.9947 18.3699 16.2516 18.2207C16.5085 18.0716 16.6667 17.797 16.6667 17.5V6.46559C16.6667 5.79479 16.6667 5.24113 16.6298 4.79014C16.5916 4.32172 16.5094 3.89114 16.3034 3.48669C15.9838 2.85948 15.4738 2.34955 14.8466 2.02997C14.4422 1.82389 14.0116 1.74176 13.5432 1.70349C13.0922 1.66664 12.5385 1.66665 11.8677 1.66666ZM7.5 7.49999C7.03976 7.49999 6.66666 7.87309 6.66666 8.33332C6.66666 8.79356 7.03976 9.16666 7.5 9.16666H12.5C12.9602 9.16666 13.3333 8.79356 13.3333 8.33332C13.3333 7.87309 12.9602 7.49999 12.5 7.49999H7.5Z" fill="#4388BB"/>
</svg>
