<svg width="20" height="20" viewBox="0 0 20 20" fill="none" xmlns="http://www.w3.org/2000/svg">
<path fill-rule="evenodd" clip-rule="evenodd" d="M11.8677 1.66666H8.13225C7.46145 1.66665 6.90781 1.66665 6.45681 1.70349C5.9884 1.74176 5.55781 1.8239 5.15337 2.02998C4.52616 2.34955 4.01622 2.85949 3.69665 3.4867C3.49057 3.89114 3.40843 4.32173 3.37016 4.79014C3.33331 5.24114 3.33332 5.79477 3.33333 6.46557V17.5C3.33333 17.7971 3.49147 18.0717 3.7484 18.2208C4.00532 18.3699 4.3222 18.3709 4.58012 18.2235L10 15.1265L15.4199 18.2235C15.6778 18.3709 15.9947 18.3699 16.2516 18.2208C16.5085 18.0717 16.6667 17.7971 16.6667 17.5V6.4656C16.6667 5.79479 16.6667 5.24114 16.6298 4.79014C16.5916 4.32173 16.5094 3.89114 16.3034 3.4867C15.9838 2.85949 15.4738 2.34955 14.8466 2.02998C14.4422 1.8239 14.0116 1.74176 13.5432 1.70349C13.0922 1.66665 12.5386 1.66665 11.8677 1.66666ZM7.5 7.5C7.03976 7.5 6.66667 7.87309 6.66667 8.33333C6.66667 8.79357 7.03976 9.16666 7.5 9.16666H12.5C12.9602 9.16666 13.3333 8.79357 13.3333 8.33333C13.3333 7.87309 12.9602 7.5 12.5 7.5H7.5Z" fill="white"/>
</svg>
