<svg width="14" height="15" viewBox="0 0 14 15" fill="none" xmlns="http://www.w3.org/2000/svg">
<g clip-path="url(#clip0_111_481)">
<path d="M7 10.4167C7 12.0275 8.30583 13.3333 9.91666 13.3333C11.5275 13.3333 12.8333 12.0275 12.8333 10.4167C12.8333 8.80584 11.5275 7.5 9.91666 7.5C8.30583 7.5 7 8.80584 7 10.4167ZM7 10.4167C7 9.75994 7.21705 9.1539 7.58333 8.66638V3.41667M7 10.4167C7 10.8981 7.11665 11.3523 7.32324 11.7526C6.8318 12.1677 5.69674 12.4583 4.375 12.4583C2.60308 12.4583 1.16666 11.936 1.16666 11.2917V3.41667M7.58333 3.41667C7.58333 4.061 6.14691 4.58333 4.375 4.58333C2.60308 4.58333 1.16666 4.061 1.16666 3.41667M7.58333 3.41667C7.58333 2.77233 6.14691 2.25 4.375 2.25C2.60308 2.25 1.16666 2.77233 1.16666 3.41667M1.16666 8.66667C1.16666 9.311 2.60308 9.83333 4.375 9.83333C5.65192 9.83333 6.7546 9.56207 7.27104 9.16937M7.58333 6.04167C7.58333 6.686 6.14691 7.20833 4.375 7.20833C2.60308 7.20833 1.16666 6.686 1.16666 6.04167" stroke="#8A8A8A" stroke-width="1.5" stroke-linecap="round" stroke-linejoin="round"/>
</g>
<defs>
<clipPath id="clip0_111_481">
<rect width="14" height="14" fill="white" transform="translate(0 0.5)"/>
</clipPath>
</defs>
</svg>
