<svg width="24" height="25" viewBox="0 0 24 25" fill="none" xmlns="http://www.w3.org/2000/svg">
<path fill-rule="evenodd" clip-rule="evenodd" d="M2.0315 12.5C2.0312 12.3662 2.00492 12.2325 1.95265 12.1065L1.23121 10.3598C1.07879 9.99188 1.00006 9.59699 1 9.19879C0.999936 8.80038 1.07838 8.40585 1.23084 8.03776C1.3833 7.66967 1.6068 7.33523 1.88856 7.05355C2.17025 6.77194 2.50465 6.54858 2.87267 6.39623L4.6166 5.67384C4.86916 5.56941 5.0706 5.36887 5.17575 5.11659L5.8983 3.37214C6.20608 2.62905 6.79645 2.03866 7.53953 1.73085C8.28261 1.42305 9.11753 1.42305 9.86061 1.73085L11.6037 2.4529C11.8567 2.55733 12.141 2.5572 12.3938 2.45231L12.3958 2.45149L14.1404 1.73192C14.8832 1.42453 15.7183 1.42443 16.4611 1.73209C17.204 2.03984 17.7943 2.63006 18.1021 3.37295L18.8073 5.07552C18.8136 5.08896 18.8196 5.10259 18.8253 5.11641C18.9298 5.36924 19.1304 5.57024 19.383 5.6753L21.1279 6.3981C21.871 6.70591 22.4614 7.2963 22.7692 8.03939C23.0769 8.78247 23.0769 9.61739 22.7692 10.3605L22.0468 12.1045C21.9943 12.2311 21.9681 12.3661 21.9681 12.5003C21.9681 12.6345 21.9943 12.7689 22.0468 12.8955L22.7692 14.6395C23.0769 15.3826 23.0769 16.2175 22.7692 16.9606C22.4614 17.7037 21.871 18.2941 21.1279 18.6019L19.383 19.3247C19.1304 19.4298 18.9298 19.6308 18.8253 19.8836C18.8196 19.8974 18.8136 19.911 18.8073 19.9245L18.1021 21.627C17.7943 22.3699 17.204 22.9602 16.4611 23.2679C15.7183 23.5756 14.8832 23.5755 14.1404 23.2681L12.3958 22.5485L12.3938 22.5477C12.141 22.4428 11.8567 22.4427 11.6037 22.5471L9.86061 23.2691C9.11753 23.577 8.28261 23.577 7.53953 23.2691C6.79645 22.9613 6.20608 22.3709 5.8983 21.6279L5.17575 19.8834C5.0706 19.6311 4.86916 19.4306 4.6166 19.3262L2.87267 18.6038C2.50465 18.4514 2.17025 18.2281 1.88856 17.9465C1.6068 17.6648 1.3833 17.3303 1.23084 16.9622C1.07838 16.5941 0.999936 16.1996 1 15.8012C1.00006 15.403 1.07879 15.0081 1.23121 14.6402L1.95265 12.8935C2.00492 12.7675 2.0312 12.6338 2.0315 12.5ZM16.2071 10.7071C16.5976 10.3166 16.5976 9.68342 16.2071 9.29289C15.8166 8.90237 15.1834 8.90237 14.7929 9.29289L11 13.0858L9.70711 11.7929C9.31658 11.4024 8.68342 11.4024 8.29289 11.7929C7.90237 12.1834 7.90237 12.8166 8.29289 13.2071L10.2929 15.2071C10.6834 15.5976 11.3166 15.5976 11.7071 15.2071L16.2071 10.7071Z" fill="white"/>
</svg>
