<svg width="30" height="30" viewBox="0 0 30 30" fill="none" xmlns="http://www.w3.org/2000/svg">
<rect x="0.75" y="0.75" width="28.5" height="28.5" rx="14.25" fill="#4388BB"/>
<rect x="0.75" y="0.75" width="28.5" height="28.5" rx="14.25" stroke="white" stroke-width="1.5"/>
<path d="M10.3333 19.6667H11.2667L17.0167 13.9167L16.0833 12.9833L10.3333 18.7333V19.6667ZM19.8667 12.95L17.0333 10.15L17.9667 9.21666C18.2222 8.96111 18.5362 8.83333 18.9087 8.83333C19.2811 8.83333 19.5949 8.96111 19.85 9.21666L20.7833 10.15C21.0389 10.4056 21.1722 10.714 21.1833 11.0753C21.1944 11.4367 21.0722 11.7449 20.8167 12L19.8667 12.95ZM9.66667 21C9.47778 21 9.31934 20.936 9.19134 20.808C9.06334 20.68 8.99956 20.5218 9 20.3333V18.45C9 18.3611 9.01667 18.2749 9.05 18.1913C9.08334 18.1078 9.13334 18.0329 9.2 17.9667L16.0667 11.1L18.9 13.9333L12.0333 20.8C11.9667 20.8667 11.8918 20.9167 11.8087 20.95C11.7256 20.9833 11.6393 21 11.55 21H9.66667ZM16.55 13.45L16.0833 12.9833L17.0167 13.9167L16.55 13.45Z" fill="white"/>
</svg>
