<svg width="55" height="13" viewBox="0 0 55 13" fill="none" xmlns="http://www.w3.org/2000/svg">
<path fill-rule="evenodd" clip-rule="evenodd" d="M5.43621 0.575364C6.05802 0.473711 6.69599 0.485497 7.32074 0.548109C7.89997 0.668177 8.48435 0.802241 9.01586 1.07111C10.0914 1.586 11.0068 2.42058 11.6169 3.44816C12.1227 4.39765 12.4707 5.4628 12.4186 6.55077C12.4333 8.78419 11.023 10.9123 9.02541 11.8618C7.73039 12.4798 6.22394 12.5645 4.84009 12.2256C3.90407 11.9369 3.00108 11.4699 2.31906 10.7524C1.66935 10.1477 1.17895 9.37716 0.867675 8.54773C0.461697 7.52752 0.42499 6.39314 0.597512 5.31842C0.913191 3.72218 1.8962 2.25853 3.28739 1.40995C3.9349 0.981975 4.67931 0.727843 5.43621 0.575364ZM4.60513 3.44179C4.13675 3.48967 3.62506 3.65467 3.36591 4.07896C3.0796 4.48536 3.04973 4.99367 3.02135 5.47657L3.01425 5.59492C3.00842 5.71673 2.99758 5.83838 2.98674 5.96005C2.96487 6.20554 2.94299 6.45113 2.96213 6.69836C2.9764 6.86531 2.98647 7.03281 2.99654 7.20033L2.99654 7.20034C3.02171 7.61894 3.04688 8.03769 3.13759 8.44856C3.24991 8.9664 3.71462 9.36785 4.22705 9.46214C5.18207 9.63489 6.15495 9.61971 7.12199 9.60462H7.122L7.38751 9.60062C7.78321 9.57852 8.17891 9.53801 8.5702 9.4754C9.15604 9.39879 9.67361 8.91999 9.76978 8.3307C9.9379 7.60808 9.968 6.86263 9.91808 6.12528C9.82411 5.65237 9.49081 5.22587 9.03785 5.05277C8.83377 4.95383 8.60742 4.95444 8.38538 4.95503H8.38538C8.34623 4.95514 8.30721 4.95524 8.26847 4.9548C7.83173 4.95533 7.39499 4.95509 6.95829 4.95485H6.95826C6.19402 4.95442 5.42989 4.95399 4.66606 4.95774C4.57825 4.95936 4.4963 4.92923 4.41508 4.89937L4.41506 4.89937C4.38492 4.88829 4.35489 4.87725 4.32469 4.86788C4.32249 4.70288 4.32836 4.45611 4.54934 4.45169C5.12472 4.43866 5.70064 4.4425 6.27653 4.44634H6.27655C7.03502 4.4514 7.79341 4.45646 8.55038 4.42296C8.46816 4.03992 8.23544 3.63994 7.8346 3.53387C7.47267 3.43664 7.09826 3.38728 6.72605 3.35266C6.61989 3.35134 6.51356 3.3493 6.40714 3.34726C5.80419 3.3357 5.19856 3.32408 4.60513 3.44179ZM8.70469 6.65903C8.51162 6.60673 8.28036 6.68334 8.21282 6.88296C8.17043 7.11276 8.23835 7.33417 8.30583 7.55411C8.33417 7.64649 8.36243 7.73861 8.38241 7.83098C8.40444 7.84388 8.4375 7.86304 8.47055 7.88221C8.50357 7.90135 8.53659 7.92049 8.5586 7.93337C8.63422 7.88918 8.7113 7.8494 8.79132 7.81478C8.79997 7.62038 8.84665 7.43341 8.89332 7.24652C8.91402 7.16359 8.93472 7.08067 8.9521 6.99714C8.91613 6.85939 8.82583 6.73343 8.70469 6.65903Z" fill="#01ACD7"/>
<path fill-rule="evenodd" clip-rule="evenodd" d="M19.961 2.41099C19.395 2.18854 18.7665 2.21358 18.1734 2.28724C16.8901 2.48613 15.7639 3.46877 15.3836 4.71438C15.2111 5.20792 15.2148 5.74049 15.2603 6.25538C15.4137 7.57245 16.4011 8.72893 17.6543 9.13186C18.5426 9.40146 19.5675 9.4103 20.3875 8.92781C20.4946 8.86837 20.5919 8.79494 20.6892 8.72148C20.78 8.65292 20.8708 8.58435 20.9697 8.5271L20.9712 8.59554C20.9833 9.13846 20.9971 9.75247 20.5865 10.1624C20.3112 10.4997 19.8949 10.6773 19.4742 10.7421C18.5646 10.9093 17.6029 10.5977 16.9268 9.97307C16.7765 10.1267 16.619 10.2734 16.4615 10.4202C16.2068 10.6576 15.9521 10.8949 15.7279 11.1612C16.4356 11.833 17.332 12.3177 18.304 12.4466C19.254 12.5667 20.2759 12.5085 21.1224 12.0186C21.8404 11.6187 22.4057 10.9358 22.6274 10.1395C22.765 9.74275 22.7631 9.31889 22.7613 8.90421L22.761 8.83427C22.7602 6.63842 22.7602 4.44331 22.761 2.24747C22.417 2.24319 22.073 2.24338 21.729 2.24357C21.4805 2.24371 21.2321 2.24385 20.9836 2.24231C20.9838 2.30262 20.9841 2.36293 20.9845 2.42325C20.9856 2.61928 20.9867 2.8153 20.9822 3.01133C20.676 2.76015 20.3376 2.53843 19.961 2.41099ZM17.7065 4.3248C18.0009 4.06256 18.3915 3.96238 18.7725 3.90566C19.5309 3.79002 20.3839 4.13843 20.7723 4.8198C20.9289 5.09587 20.9224 5.40791 20.9159 5.717C20.9137 5.82522 20.9114 5.93307 20.9162 6.0389C20.9801 6.68859 20.4757 7.26168 19.8979 7.48266C19.1998 7.74637 18.3386 7.76405 17.7293 7.27715C16.816 6.58989 16.7977 5.02163 17.7065 4.3248ZM35.5586 2.24378C34.7995 2.23862 34.0081 2.46624 33.4612 3.01575C33.4564 2.94549 33.4518 2.87532 33.4473 2.80526L33.4472 2.80482C33.4394 2.68405 33.4316 2.56358 33.4223 2.4434C32.8247 2.43604 32.2271 2.43383 31.6295 2.4434C31.6304 4.26136 31.6303 6.07933 31.6301 7.89729C31.63 9.26076 31.63 10.6242 31.6303 11.9877C32.0502 12.0149 32.4711 12.0125 32.8919 12.0101H32.8919H32.892H32.892H32.892H32.8921C33.0877 12.009 33.2833 12.0079 33.4788 12.0098C33.4925 11.1676 33.4895 10.3249 33.4864 9.48215V9.48209V9.48204V9.48198V9.48192L33.4864 9.47952C33.4854 9.1925 33.4843 8.90547 33.484 8.61843C34.8025 9.66958 36.9014 9.55393 38.087 8.3481C39.3776 7.04945 39.4518 4.73501 38.2089 3.37964C37.5548 2.62535 36.5505 2.20842 35.5586 2.24378ZM33.5704 4.97835C33.7635 4.39569 34.3537 4.04801 34.9271 3.93383C35.518 3.81376 36.1788 3.9633 36.6354 4.36696C37.4092 5.07264 37.4151 6.42874 36.6853 7.16757C35.9534 7.8784 34.6584 7.86514 33.9308 7.15431C33.621 6.87955 33.4588 6.44937 33.486 6.03834C33.492 5.93001 33.4891 5.82009 33.4862 5.71006V5.71003V5.70999V5.70996V5.70993C33.4797 5.46088 33.4731 5.21129 33.5704 4.97835ZM26.2688 2.33409C27.312 2.12342 28.4536 2.25012 29.3617 2.83278C30.0525 3.25118 30.5782 3.9296 30.8131 4.70378C31.1354 5.72104 30.9908 6.88489 30.3873 7.7703C29.7875 8.66234 28.7634 9.20891 27.7062 9.3113C27.055 9.3555 26.3818 9.3334 25.7659 9.09547C24.7454 8.75147 23.8894 7.90658 23.5884 6.8628C23.2654 5.88457 23.4152 4.76492 23.9687 3.89866C24.4812 3.08839 25.3401 2.53519 26.2688 2.33409ZM26.7055 3.94299C26.4456 4.01739 26.2026 4.14703 25.9897 4.31277C25.2526 4.89543 25.0728 6.04749 25.5977 6.82757C26.1975 7.81979 27.745 8.01573 28.557 7.18483C28.9541 6.81873 29.1428 6.27216 29.09 5.73664C29.1347 4.54922 27.8221 3.59236 26.7055 3.94299ZM43.747 2.2877C42.6789 2.14701 41.5219 2.29654 40.6358 2.95139C40.1241 3.35947 39.6865 3.92077 39.5999 4.58814C39.855 4.63197 40.108 4.68734 40.361 4.74271C40.6906 4.81482 41.0202 4.88695 41.3545 4.93362C41.4991 4.35095 42.0027 3.88762 42.5937 3.79186C42.9762 3.72557 43.3741 3.74546 43.7463 3.8589C44.0715 3.96497 44.3189 4.32223 44.1765 4.66254C43.9112 4.90525 43.5503 4.97863 43.2065 5.04854L43.2064 5.04857L43.2063 5.04858C43.1621 5.05759 43.118 5.06653 43.0746 5.07578L42.8956 5.10128C42.0229 5.22497 41.1156 5.35356 40.3729 5.85954C39.4545 6.50408 39.4509 8.02076 40.3003 8.72497C41.0014 9.32973 41.9888 9.39897 42.8683 9.28185C43.4769 9.16767 44.0899 8.90323 44.4782 8.40012C44.4804 8.52424 44.4804 8.64837 44.4804 8.77258C44.4804 8.89679 44.4804 9.02109 44.4826 9.14557C44.6165 9.1454 44.7504 9.14496 44.8844 9.14453H44.8846H44.8848C45.3097 9.14317 45.7351 9.1418 46.1609 9.14852C46.1626 8.31639 46.1623 7.4845 46.1621 6.65272V6.65268V6.65264C46.1619 6.02877 46.1617 5.40495 46.1623 4.78114C46.169 4.27508 45.9847 3.78229 45.7072 3.36536C45.2564 2.7304 44.4914 2.40998 43.747 2.2877ZM41.4361 7.32951C41.3392 7.09895 41.5264 6.87134 41.7136 6.7579C42.0912 6.54911 42.5162 6.47122 42.9403 6.39347C43.4515 6.29979 43.9614 6.20632 44.3859 5.88428C44.3819 5.98544 44.3851 6.09133 44.3883 6.1987C44.3994 6.56117 44.4109 6.94041 44.1458 7.21092C43.6334 7.7236 42.853 7.81789 42.1637 7.77369C41.8773 7.75675 41.5007 7.65731 41.4361 7.32951ZM46.8999 2.43826C46.7026 2.43862 46.5052 2.43898 46.3078 2.43898C46.8286 3.53083 47.3609 4.6172 47.8933 5.70363C48.3928 6.72299 48.8923 7.74241 49.3824 8.76649C49.1415 9.2979 48.8796 9.81957 48.6177 10.3412C48.3409 10.8926 48.0641 11.444 47.8121 12.0069C48.0241 12.0059 48.2364 12.0076 48.4487 12.0092C48.9205 12.0129 49.3926 12.0165 49.864 11.9921C51.4108 8.81143 52.9562 5.63073 54.5 2.44856C53.8063 2.43088 53.1133 2.43383 52.4202 2.44561C51.7551 3.91074 51.0819 5.37291 50.405 6.83215C50.2054 6.39973 50.0037 5.96826 49.802 5.53683C49.4725 4.83205 49.1431 4.12735 48.823 3.41868C48.7717 3.30329 48.7152 3.1902 48.6587 3.07714C48.5551 2.86972 48.4516 2.6624 48.3803 2.44119C47.8868 2.43646 47.3934 2.43736 46.8999 2.43826Z" fill="#010101"/>
</svg>
