<svg width="14" height="15" viewBox="0 0 14 15" fill="none" xmlns="http://www.w3.org/2000/svg">
<path d="M6.99999 8.76583C5.75749 8.76583 4.74249 7.75667 4.74249 6.50833C4.74249 5.26 5.75749 4.25667 6.99999 4.25667C8.24249 4.25667 9.25749 5.26583 9.25749 6.51417C9.25749 7.7625 8.24249 8.76583 6.99999 8.76583ZM6.99999 5.13167C6.24166 5.13167 5.61749 5.75 5.61749 6.51417C5.61749 7.27833 6.23583 7.89667 6.99999 7.89667C7.76416 7.89667 8.38249 7.27833 8.38249 6.51417C8.38249 5.75 7.75833 5.13167 6.99999 5.13167Z" fill="#8A8A8A"/>
<path d="M7 13.7767C6.13666 13.7767 5.2675 13.45 4.59083 12.8025C2.87 11.1458 0.968329 8.50333 1.68583 5.35916C2.33333 2.50666 4.82416 1.22916 7 1.22916C7 1.22916 7 1.22916 7.00583 1.22916C9.18166 1.22916 11.6725 2.50666 12.32 5.365C13.0317 8.50916 11.13 11.1458 9.40916 12.8025C8.7325 13.45 7.86333 13.7767 7 13.7767ZM7 2.10416C5.3025 2.10416 3.12083 3.00833 2.54333 5.55166C1.91333 8.29916 3.64 10.6675 5.20333 12.1667C6.2125 13.1408 7.79333 13.1408 8.8025 12.1667C10.36 10.6675 12.0867 8.29916 11.4683 5.55166C10.885 3.00833 8.6975 2.10416 7 2.10416Z" fill="#8A8A8A"/>
</svg>
