<svg width="23" height="22" viewBox="0 0 23 22" fill="none" xmlns="http://www.w3.org/2000/svg">
<path d="M16.0834 9.16667V7.33333C16.0834 4.80203 14.0313 2.75 11.5 2.75C8.96872 2.75 6.91669 4.80203 6.91669 7.33333V9.16667M11.5 13.2917V15.125M8.56669 19.25H14.4334C15.9735 19.25 16.7436 19.25 17.3318 18.9503C17.8493 18.6866 18.27 18.2659 18.5336 17.7485C18.8334 17.1602 18.8334 16.3901 18.8334 14.85V13.5667C18.8334 12.0265 18.8334 11.2564 18.5336 10.6682C18.27 10.1507 17.8493 9.73005 17.3318 9.4664C16.7436 9.16667 15.9735 9.16667 14.4334 9.16667H8.56669C7.02654 9.16667 6.25647 9.16667 5.66821 9.4664C5.15077 9.73005 4.73007 10.1507 4.46642 10.6682C4.16669 11.2564 4.16669 12.0265 4.16669 13.5667V14.85C4.16669 16.3901 4.16669 17.1602 4.46642 17.7485C4.73007 18.2659 5.15077 18.6866 5.66821 18.9503C6.25647 19.25 7.02654 19.25 8.56669 19.25Z" stroke="#8A8A8A" stroke-width="1.5" stroke-linecap="round" stroke-linejoin="round"/>
</svg>
