<svg width="151" height="150" viewBox="0 0 151 150" fill="none" xmlns="http://www.w3.org/2000/svg">
<circle cx="75.5" cy="75" r="75" fill="#0279FC" fill-opacity="0.2"/>
<circle cx="76" cy="75" r="56" fill="#0279FC" fill-opacity="0.4"/>
<circle cx="75.5" cy="74.5" r="37.5" fill="#0279FC"/>
<path d="M89.7616 71.4591C89.2314 70.905 88.683 70.3341 88.4762 69.832C88.285 69.3722 88.2738 68.61 88.2625 67.8717C88.2414 66.4992 88.2189 64.9439 87.1375 63.8625C86.0561 62.7811 84.5008 62.7586 83.1283 62.7375C82.39 62.7262 81.6278 62.715 81.168 62.5237C80.6673 62.317 80.095 61.7686 79.5409 61.2384C78.5706 60.3061 77.4681 59.25 76 59.25C74.5319 59.25 73.4308 60.3061 72.4591 61.2384C71.905 61.7686 71.3341 62.317 70.832 62.5237C70.375 62.715 69.61 62.7262 68.8717 62.7375C67.4992 62.7586 65.9439 62.7811 64.8625 63.8625C63.7811 64.9439 63.7656 66.4992 63.7375 67.8717C63.7262 68.61 63.715 69.3722 63.5237 69.832C63.317 70.3327 62.7686 70.905 62.2384 71.4591C61.3061 72.4294 60.25 73.5319 60.25 75C60.25 76.4681 61.3061 77.5692 62.2384 78.5409C62.7686 79.095 63.317 79.6659 63.5237 80.168C63.715 80.6278 63.7262 81.39 63.7375 82.1283C63.7586 83.5008 63.7811 85.0561 64.8625 86.1375C65.9439 87.2189 67.4992 87.2414 68.8717 87.2625C69.61 87.2738 70.3722 87.285 70.832 87.4762C71.3327 87.683 71.905 88.2314 72.4591 88.7616C73.4294 89.6939 74.5319 90.75 76 90.75C77.4681 90.75 78.5692 89.6939 79.5409 88.7616C80.095 88.2314 80.6659 87.683 81.168 87.4762C81.6278 87.285 82.39 87.2738 83.1283 87.2625C84.5008 87.2414 86.0561 87.2189 87.1375 86.1375C88.2189 85.0561 88.2414 83.5008 88.2625 82.1283C88.2738 81.39 88.285 80.6278 88.4762 80.168C88.683 79.6673 89.2314 79.095 89.7616 78.5409C90.6939 77.5706 91.75 76.4681 91.75 75C91.75 73.5319 90.6939 72.4308 89.7616 71.4591ZM82.4209 72.4209L74.5459 80.2959C74.4415 80.4005 74.3174 80.4835 74.1808 80.5401C74.0442 80.5967 73.8978 80.6259 73.75 80.6259C73.6022 80.6259 73.4558 80.5967 73.3192 80.5401C73.1826 80.4835 73.0585 80.4005 72.9541 80.2959L69.5791 76.9209C69.368 76.7098 69.2494 76.4235 69.2494 76.125C69.2494 75.8265 69.368 75.5402 69.5791 75.3291C69.7902 75.118 70.0765 74.9994 70.375 74.9994C70.6735 74.9994 70.9598 75.118 71.1709 75.3291L73.75 77.9095L80.8291 70.8291C80.9336 70.7245 81.0577 70.6416 81.1942 70.5851C81.3308 70.5285 81.4772 70.4994 81.625 70.4994C81.7728 70.4994 81.9192 70.5285 82.0558 70.5851C82.1923 70.6416 82.3164 70.7245 82.4209 70.8291C82.5255 70.9336 82.6084 71.0577 82.6649 71.1942C82.7215 71.3308 82.7506 71.4772 82.7506 71.625C82.7506 71.7728 82.7215 71.9192 82.6649 72.0558C82.6084 72.1923 82.5255 72.3164 82.4209 72.4209Z" fill="white"/>
</svg>
