<svg width="33" height="30" viewBox="0 0 33 30" fill="none" xmlns="http://www.w3.org/2000/svg">
<path d="M27.8026 20.775C27.8026 21.8375 26.8539 22.7 25.6851 22.7H7.31514C6.14639 22.7 5.19763 21.8375 5.19763 20.775C5.19763 19.7125 6.14639 18.85 7.31514 18.85H8.01637V12.425C8.01637 8.17501 11.8114 4.71251 16.5001 4.71251C18.8376 4.71251 20.9551 5.57501 22.4951 6.97501C24.0351 8.36251 24.9839 10.2875 24.9839 12.425V18.85H25.6851C26.8539 18.85 27.8026 19.7125 27.8026 20.775Z" stroke="#1E1E1E" stroke-width="1.5" stroke-linecap="round" stroke-linejoin="round"/>
<path d="M16.5 4.725V3.4375" stroke="#1E1E1E" stroke-width="1.5" stroke-linecap="round" stroke-linejoin="round"/>
<path d="M20.735 22.7125C20.735 24.85 18.8375 26.5625 16.5 26.5625C14.1625 26.5625 12.265 24.8375 12.265 22.7125H20.735Z" stroke="#1E1E1E" stroke-width="1.5" stroke-linecap="round" stroke-linejoin="round"/>
</svg>
