<svg width="35" height="34" viewBox="0 0 35 34" fill="none" xmlns="http://www.w3.org/2000/svg">
<path d="M3.33333 17C3.33333 24.824 9.67597 31.1667 17.5 31.1667C19.8472 31.1667 21.75 29.2639 21.75 26.9167V26.2083C21.75 25.5504 21.75 25.2214 21.7864 24.9453C22.0374 23.0381 23.5381 21.5374 25.4453 21.2864C25.7214 21.25 26.0504 21.25 26.7083 21.25H27.4167C29.7639 21.25 31.6667 19.3472 31.6667 17C31.6667 9.17596 25.324 2.83333 17.5 2.83333C9.67597 2.83333 3.33333 9.17596 3.33333 17Z" stroke="#1E1E1E" stroke-width="1.5" stroke-linecap="round" stroke-linejoin="round"/>
<path d="M10.4167 18.4167C11.1991 18.4167 11.8333 17.7824 11.8333 17C11.8333 16.2176 11.1991 15.5833 10.4167 15.5833C9.63426 15.5833 9 16.2176 9 17C9 17.7824 9.63426 18.4167 10.4167 18.4167Z" stroke="#1E1E1E" stroke-width="1.5" stroke-linecap="round" stroke-linejoin="round"/>
<path d="M23.1667 12.75C23.9491 12.75 24.5833 12.1157 24.5833 11.3333C24.5833 10.5509 23.9491 9.91666 23.1667 9.91666C22.3843 9.91666 21.75 10.5509 21.75 11.3333C21.75 12.1157 22.3843 12.75 23.1667 12.75Z" stroke="#1E1E1E" stroke-width="1.5" stroke-linecap="round" stroke-linejoin="round"/>
<path d="M14.6667 11.3333C15.4491 11.3333 16.0833 10.6991 16.0833 9.91666C16.0833 9.13426 15.4491 8.49999 14.6667 8.49999C13.8843 8.49999 13.25 9.13426 13.25 9.91666C13.25 10.6991 13.8843 11.3333 14.6667 11.3333Z" stroke="#1E1E1E" stroke-width="1.5" stroke-linecap="round" stroke-linejoin="round"/>
</svg>
