<svg width="14" height="15" viewBox="0 0 14 15" fill="none" xmlns="http://www.w3.org/2000/svg">
<g clip-path="url(#clip0_77_703)">
<path d="M5.16682 12.9255C4.55617 13.4124 3.68121 12.8255 3.90014 12.0758L4.59039 9.712C4.68384 9.39198 4.56904 9.04755 4.30226 8.8476L2.55786 7.54015C1.94257 7.07898 2.26873 6.1 3.03767 6.1H5.11154C5.46855 6.1 5.78235 5.86345 5.88063 5.52024L6.54916 3.1857C6.77052 2.41269 7.86597 2.41269 8.08733 3.1857L8.75586 5.52024C8.85414 5.86345 9.16794 6.1 9.52494 6.1H11.5988C12.3678 6.1 12.6939 7.07898 12.0786 7.54015L10.3342 8.8476C10.0675 9.04755 9.95265 9.39198 10.0461 9.712L10.7363 12.0758C10.9553 12.8255 10.0803 13.4124 9.46967 12.9255L7.817 11.6077C7.5252 11.375 7.11129 11.375 6.81949 11.6077L5.16682 12.9255Z" fill="#FCC608"/>
</g>
<defs>
<clipPath id="clip0_77_703">
<rect width="14" height="14" fill="white" transform="translate(0 0.5)"/>
</clipPath>
</defs>
</svg>
