<svg width="16" height="16" viewBox="0 0 16 16" fill="none" xmlns="http://www.w3.org/2000/svg">
<path fill-rule="evenodd" clip-rule="evenodd" d="M9.49416 1.33334H6.50576C5.96912 1.33334 5.5262 1.33333 5.16541 1.36281C4.79068 1.39342 4.44621 1.45913 4.12265 1.62399C3.62089 1.87966 3.21294 2.2876 2.95728 2.78937C2.79242 3.11293 2.72671 3.4574 2.69609 3.83213C2.66661 4.19292 2.66662 4.63583 2.66663 5.17247V14C2.66663 14.2377 2.79313 14.4573 2.99868 14.5766C3.20422 14.6959 3.45772 14.6967 3.66405 14.5788L7.99996 12.1012L12.3359 14.5788C12.5422 14.6967 12.7957 14.6959 13.0012 14.5766C13.2068 14.4573 13.3333 14.2377 13.3333 14V5.17249C13.3333 4.63585 13.3333 4.19292 13.3038 3.83213C13.2732 3.4574 13.2075 3.11293 13.0426 2.78937C12.787 2.2876 12.379 1.87966 11.8773 1.62399C11.5537 1.45913 11.2092 1.39342 10.8345 1.36281C10.4737 1.33333 10.0308 1.33334 9.49416 1.33334ZM5.99996 6.00001C5.63177 6.00001 5.33329 6.29849 5.33329 6.66668C5.33329 7.03487 5.63177 7.33334 5.99996 7.33334H9.99996C10.3681 7.33334 10.6666 7.03487 10.6666 6.66668C10.6666 6.29849 10.3681 6.00001 9.99996 6.00001H5.99996Z" fill="white"/>
</svg>
