<svg width="14" height="15" viewBox="0 0 14 15" fill="none" xmlns="http://www.w3.org/2000/svg">
<path d="M12.8333 12.75V11.5833C12.8333 10.4961 12.0897 9.58253 11.0833 9.32351M9.04167 2.41961C9.89678 2.76575 10.5 3.6041 10.5 4.58333C10.5 5.56257 9.89678 6.40091 9.04167 6.74706M9.91667 12.75C9.91667 11.6628 9.91667 11.1192 9.73905 10.6904C9.50223 10.1187 9.04799 9.66443 8.47626 9.42761C8.04746 9.25 7.50386 9.25 6.41667 9.25H4.66667C3.57947 9.25 3.03587 9.25 2.60707 9.42761C2.03534 9.66443 1.5811 10.1187 1.34428 10.6904C1.16667 11.1192 1.16667 11.6628 1.16667 12.75M7.875 4.58333C7.875 5.872 6.83033 6.91667 5.54167 6.91667C4.253 6.91667 3.20833 5.872 3.20833 4.58333C3.20833 3.29467 4.253 2.25 5.54167 2.25C6.83033 2.25 7.875 3.29467 7.875 4.58333Z" stroke="#8A8A8A" stroke-width="1.5" stroke-linecap="round" stroke-linejoin="round"/>
</svg>
